<svg xmlns="http://www.w3.org/2000/svg" xmlns:xlink="http://www.w3.org/1999/xlink">
	<symbol id="craft-decoration-1" viewBox="0 0 1022 408">
		<path opacity="0.5" d="M1.30898 604.998C102.614 541.558 390.461 431.626 731.409 499.42C1072.36 567.214 1132.62 384.137 1112.56 374.292C1091.34 369.309 1046.53 455.595 1116.47 481.556C1223.56 521.304 1662.56 245.302 1722.71 0.273096" stroke="#DCCFC3" stroke-width="2" />
	</symbol>
	<symbol id="age" viewBox="0 0 18 18">
		<path d="M15.364 11.636C14.3837 10.6558 13.217 9.93013 11.9439 9.49085C13.3074 8.55179 14.2031 6.9802 14.2031 5.20312C14.2031 2.33413 11.869 0 9 0C6.131 0 3.79688 2.33413 3.79688 5.20312C3.79688 6.9802 4.69262 8.55179 6.05609 9.49085C4.78308 9.93013 3.61631 10.6558 2.63605 11.636C0.936176 13.3359 0 15.596 0 18H1.40625C1.40625 13.8128 4.81279 10.4062 9 10.4062C13.1872 10.4062 16.5938 13.8128 16.5938 18H18C18 15.596 17.0638 13.3359 15.364 11.636ZM9 9C6.90641 9 5.20312 7.29675 5.20312 5.20312C5.20312 3.1095 6.90641 1.40625 9 1.40625C11.0936 1.40625 12.7969 3.1095 12.7969 5.20312C12.7969 7.29675 11.0936 9 9 9Z" fill="black" />
	</symbol>
	<symbol id="location" viewBox="0 0 18 20">
		<path d="M12.2115 12.5894C14.3544 9.40771 14.085 9.80465 14.1468 9.7217C14.927 8.68049 15.3393 7.45503 15.3393 6.17773C15.3393 2.7904 12.4343 0 8.84961 0C5.27665 0 2.3599 2.78489 2.3599 6.17773C2.3599 7.45421 2.7809 8.71175 3.58665 9.76699L5.48762 12.5894C3.45516 12.8849 0 13.7656 0 15.7048C0 16.4117 0.487633 17.4191 2.81071 18.2042C4.43283 18.7523 6.57746 19.0542 8.84961 19.0542C13.0984 19.0542 17.6992 17.9202 17.6992 15.7048C17.6992 13.7653 14.2481 12.8855 12.2115 12.5894ZM4.57226 9.1529C4.56577 9.1433 4.559 9.13392 4.55192 9.12469C3.88144 8.25192 3.53984 7.21756 3.53984 6.17773C3.53984 3.38592 5.91571 1.11646 8.84961 1.11646C11.7774 1.11646 14.1594 3.38692 14.1594 6.17773C14.1594 7.21923 13.8242 8.2185 13.19 9.06827C13.1332 9.1392 13.4297 8.70334 8.84961 15.5035L4.57226 9.1529ZM8.84961 17.9377C4.20872 17.9377 1.17995 16.647 1.17995 15.7048C1.17995 15.0716 2.73622 14.0303 6.18481 13.6245L8.35207 16.8422C8.46038 17.003 8.64799 17.1004 8.84957 17.1004C9.05114 17.1004 9.2388 17.003 9.34708 16.8422L11.5143 13.6245C14.963 14.0303 16.5193 15.0716 16.5193 15.7048C16.5193 16.639 13.5178 17.9377 8.84961 17.9377Z" fill="black" />
		<path d="M8.84959 3.3866C7.22303 3.3866 5.89972 4.6387 5.89972 6.17773C5.89972 7.71677 7.22303 8.96887 8.84959 8.96887C10.4761 8.96887 11.7995 7.71677 11.7995 6.17773C11.7995 4.6387 10.4761 3.3866 8.84959 3.3866ZM8.84959 7.85242C7.87365 7.85242 7.07967 7.10115 7.07967 6.17773C7.07967 5.25431 7.87365 4.50305 8.84959 4.50305C9.82553 4.50305 10.6195 5.25431 10.6195 6.17773C10.6195 7.10115 9.82553 7.85242 8.84959 7.85242Z" fill="black" />
	</symbol>
	<symbol id="phone" viewBox="0 0 473.806 473.806">
		<g>
			<g xmlns="http://www.w3.org/2000/svg">
				<g>
					<path d="M374.456,293.506c-9.7-10.1-21.4-15.5-33.8-15.5c-12.3,0-24.1,5.3-34.2,15.4l-31.6,31.5c-2.6-1.4-5.2-2.7-7.7-4    c-3.6-1.8-7-3.5-9.9-5.3c-29.6-18.8-56.5-43.3-82.3-75c-12.5-15.8-20.9-29.1-27-42.6c8.2-7.5,15.8-15.3,23.2-22.8    c2.8-2.8,5.6-5.7,8.4-8.5c21-21,21-48.2,0-69.2l-27.3-27.3c-3.1-3.1-6.3-6.3-9.3-9.5c-6-6.2-12.3-12.6-18.8-18.6    c-9.7-9.6-21.3-14.7-33.5-14.7s-24,5.1-34,14.7c-0.1,0.1-0.1,0.1-0.2,0.2l-34,34.3c-12.8,12.8-20.1,28.4-21.7,46.5    c-2.4,29.2,6.2,56.4,12.8,74.2c16.2,43.7,40.4,84.2,76.5,127.6c43.8,52.3,96.5,93.6,156.7,122.7c23,10.9,53.7,23.8,88,26    c2.1,0.1,4.3,0.2,6.3,0.2c23.1,0,42.5-8.3,57.7-24.8c0.1-0.2,0.3-0.3,0.4-0.5c5.2-6.3,11.2-12,17.5-18.1c4.3-4.1,8.7-8.4,13-12.9    c9.9-10.3,15.1-22.3,15.1-34.6c0-12.4-5.3-24.3-15.4-34.3L374.456,293.506z M410.256,398.806    C410.156,398.806,410.156,398.906,410.256,398.806c-3.9,4.2-7.9,8-12.2,12.2c-6.5,6.2-13.1,12.7-19.3,20    c-10.1,10.8-22,15.9-37.6,15.9c-1.5,0-3.1,0-4.6-0.1c-29.7-1.9-57.3-13.5-78-23.4c-56.6-27.4-106.3-66.3-147.6-115.6    c-34.1-41.1-56.9-79.1-72-119.9c-9.3-24.9-12.7-44.3-11.2-62.6c1-11.7,5.5-21.4,13.8-29.7l34.1-34.1c4.9-4.6,10.1-7.1,15.2-7.1    c6.3,0,11.4,3.8,14.6,7c0.1,0.1,0.2,0.2,0.3,0.3c6.1,5.7,11.9,11.6,18,17.9c3.1,3.2,6.3,6.4,9.5,9.7l27.3,27.3    c10.6,10.6,10.6,20.4,0,31c-2.9,2.9-5.7,5.8-8.6,8.6c-8.4,8.6-16.4,16.6-25.1,24.4c-0.2,0.2-0.4,0.3-0.5,0.5    c-8.6,8.6-7,17-5.2,22.7c0.1,0.3,0.2,0.6,0.3,0.9c7.1,17.2,17.1,33.4,32.3,52.7l0.1,0.1c27.6,34,56.7,60.5,88.8,80.8    c4.1,2.6,8.3,4.7,12.3,6.7c3.6,1.8,7,3.5,9.9,5.3c0.4,0.2,0.8,0.5,1.2,0.7c3.4,1.7,6.6,2.5,9.9,2.5c8.3,0,13.5-5.2,15.2-6.9    l34.2-34.2c3.4-3.4,8.8-7.5,15.1-7.5c6.2,0,11.3,3.9,14.4,7.3c0.1,0.1,0.1,0.1,0.2,0.2l55.1,55.1    C420.456,377.706,420.456,388.206,410.256,398.806z" fill="#000000" data-original="#000000" />
					<path d="M256.056,112.706c26.2,4.4,50,16.8,69,35.8s31.3,42.8,35.8,69c1.1,6.6,6.8,11.2,13.3,11.2c0.8,0,1.5-0.1,2.3-0.2    c7.4-1.2,12.3-8.2,11.1-15.6c-5.4-31.7-20.4-60.6-43.3-83.5s-51.8-37.9-83.5-43.3c-7.4-1.2-14.3,3.7-15.6,11    S248.656,111.506,256.056,112.706z" fill="#000000" data-original="#000000" />
					<path d="M473.256,209.006c-8.9-52.2-33.5-99.7-71.3-137.5s-85.3-62.4-137.5-71.3c-7.3-1.3-14.2,3.7-15.5,11    c-1.2,7.4,3.7,14.3,11.1,15.6c46.6,7.9,89.1,30,122.9,63.7c33.8,33.8,55.8,76.3,63.7,122.9c1.1,6.6,6.8,11.2,13.3,11.2    c0.8,0,1.5-0.1,2.3-0.2C469.556,223.306,474.556,216.306,473.256,209.006z" fill="#000000" data-original="#000000" />
				</g>
			</g>
			<g xmlns="http://www.w3.org/2000/svg">
			</g>
			<g xmlns="http://www.w3.org/2000/svg">
			</g>
			<g xmlns="http://www.w3.org/2000/svg">
			</g>
			<g xmlns="http://www.w3.org/2000/svg">
			</g>
			<g xmlns="http://www.w3.org/2000/svg">
			</g>
			<g xmlns="http://www.w3.org/2000/svg">
			</g>
			<g xmlns="http://www.w3.org/2000/svg">
			</g>
			<g xmlns="http://www.w3.org/2000/svg">
			</g>
			<g xmlns="http://www.w3.org/2000/svg">
			</g>
			<g xmlns="http://www.w3.org/2000/svg">
			</g>
			<g xmlns="http://www.w3.org/2000/svg">
			</g>
			<g xmlns="http://www.w3.org/2000/svg">
			</g>
			<g xmlns="http://www.w3.org/2000/svg">
			</g>
			<g xmlns="http://www.w3.org/2000/svg">
			</g>
			<g xmlns="http://www.w3.org/2000/svg">
			</g>
		</g>
	</symbol>
	<symbol id="delete" viewBox="0 0 512.015 512.015">
		<g>
			<g xmlns="http://www.w3.org/2000/svg">
				<g>
					<path d="M298.594,256.011L503.183,51.422c11.776-11.776,11.776-30.81,0-42.586c-11.776-11.776-30.81-11.776-42.586,0    L256.008,213.425L51.418,8.836C39.642-2.94,20.608-2.94,8.832,8.836s-11.776,30.81,0,42.586l204.589,204.589L8.832,460.6    c-11.776,11.776-11.776,30.81,0,42.586c5.873,5.873,13.583,8.824,21.293,8.824c7.71,0,15.42-2.952,21.293-8.824l204.589-204.589    l204.589,204.589c5.873,5.873,13.583,8.824,21.293,8.824c7.71,0,15.42-2.952,21.293-8.824c11.776-11.776,11.776-30.81,0-42.586    L298.594,256.011z" fill="#000000" data-original="#000000" />
				</g>
			</g>
			<g xmlns="http://www.w3.org/2000/svg">
			</g>
			<g xmlns="http://www.w3.org/2000/svg">
			</g>
			<g xmlns="http://www.w3.org/2000/svg">
			</g>
			<g xmlns="http://www.w3.org/2000/svg">
			</g>
			<g xmlns="http://www.w3.org/2000/svg">
			</g>
			<g xmlns="http://www.w3.org/2000/svg">
			</g>
			<g xmlns="http://www.w3.org/2000/svg">
			</g>
			<g xmlns="http://www.w3.org/2000/svg">
			</g>
			<g xmlns="http://www.w3.org/2000/svg">
			</g>
			<g xmlns="http://www.w3.org/2000/svg">
			</g>
			<g xmlns="http://www.w3.org/2000/svg">
			</g>
			<g xmlns="http://www.w3.org/2000/svg">
			</g>
			<g xmlns="http://www.w3.org/2000/svg">
			</g>
			<g xmlns="http://www.w3.org/2000/svg">
			</g>
			<g xmlns="http://www.w3.org/2000/svg">
			</g>
		</g>
	</symbol>
	<symbol id="calendar" viewBox="0 0 484.951 484.951">
		<g xmlns="http://www.w3.org/2000/svg">
			<g id="_x31_5_38_">
				<g>
					<path d="M118.505,115.332h6.938c10.544,0,19.091-8.55,19.091-19.091V43.558V23.852c0-10.541-8.547-19.09-19.091-19.09h-6.938     c-10.543,0-19.09,8.549-19.09,19.09v19.707v52.682C99.415,106.782,107.962,115.332,118.505,115.332z" fill="#000000" data-original="#000000" />
					<path d="M363.373,114.859h6.938c10.543,0,19.09-8.549,19.09-19.091v-57.21v-15.18c0-10.54-8.547-19.089-19.09-19.089h-6.938     c-10.545,0-19.092,8.549-19.092,19.089v15.18v57.209C344.283,106.31,352.83,114.859,363.373,114.859z" fill="#000000" data-original="#000000" />
					<path d="M453.916,43.558H404.92v57.209c0,19.084-15.525,29.61-34.607,29.61h-6.938c-19.084,0-34.609-15.526-34.609-34.61V43.558     H160.053V96.24c0,19.084-15.525,34.61-34.609,34.61h-6.938c-19.083,0-34.608-15.526-34.608-34.61V43.558H31.036     C13.923,43.558,0,57.481,0,74.595v375.03c0,17.114,13.923,31.037,31.036,31.037h422.88c17.113,0,31.035-13.923,31.035-31.037     V74.595C484.953,57.482,471.029,43.558,453.916,43.558z M453.916,449.625H31.037l-0.001-283.213h422.886l0.016,283.212     C453.936,449.624,453.93,449.625,453.916,449.625z" fill="#000000" data-original="#000000" />
					<path d="M258.498,261.41h55.727c2.209,0,4-1.791,4-4v-48.255c0-2.209-1.791-4-4-4h-55.727c-2.209,0-4,1.791-4,4v48.255     C254.498,259.619,256.289,261.41,258.498,261.41z" fill="#000000" data-original="#000000" />
					<path d="M349.443,261.41h55.727c2.209,0,4-1.791,4-4v-48.255c0-2.209-1.791-4-4-4h-55.727c-2.209,0-4,1.791-4,4v48.255     C345.443,259.619,347.234,261.41,349.443,261.41z" fill="#000000" data-original="#000000" />
					<path d="M76.611,340.41h55.726c2.209,0,4-1.791,4-4v-48.256c0-2.209-1.791-4-4-4H76.611c-2.209,0-4,1.791-4,4v48.256     C72.611,338.619,74.402,340.41,76.611,340.41z" fill="#000000" data-original="#000000" />
					<path d="M167.555,340.41h55.726c2.209,0,4-1.791,4-4v-48.256c0-2.209-1.791-4-4-4h-55.726c-2.209,0-4,1.791-4,4v48.256     C163.555,338.619,165.346,340.41,167.555,340.41z" fill="#000000" data-original="#000000" />
					<path d="M258.499,340.41h55.726c2.209,0,4-1.791,4-4v-48.256c0-2.209-1.791-4-4-4h-55.726c-2.209,0-4,1.791-4,4v48.256     C254.499,338.619,256.29,340.41,258.499,340.41z" fill="#000000" data-original="#000000" />
					<path d="M349.443,340.41h55.727c2.209,0,4-1.791,4-4v-48.256c0-2.209-1.791-4-4-4h-55.727c-2.209,0-4,1.791-4,4v48.256     C345.443,338.619,347.234,340.41,349.443,340.41z" fill="#000000" data-original="#000000" />
					<path d="M132.337,363.154H76.612c-2.209,0-4,1.791-4,4v48.256c0,2.209,1.791,4,4,4h55.726c2.209,0,4-1.791,4-4v-48.256     C136.337,364.945,134.546,363.154,132.337,363.154z" fill="#000000" data-original="#000000" />
					<path d="M223.282,363.154h-55.726c-2.209,0-4,1.791-4,4v48.256c0,2.209,1.791,4,4,4h55.726c2.209,0,4-1.791,4-4v-48.256     C227.282,364.945,225.491,363.154,223.282,363.154z" fill="#000000" data-original="#000000" />
					<path d="M314.227,363.154H258.5c-2.209,0-4,1.791-4,4v48.256c0,2.209,1.791,4,4,4h55.727c2.209,0,4-1.791,4-4v-48.256     C318.227,364.945,316.436,363.154,314.227,363.154z" fill="#000000" data-original="#000000" />
					<path d="M405.17,363.154h-55.727c-2.209,0-4,1.791-4,4v48.256c0,2.209,1.791,4,4,4h55.727c2.209,0,4-1.791,4-4v-48.256     C409.17,364.945,407.379,363.154,405.17,363.154z" fill="#000000" data-original="#000000" />
				</g>
			</g>
		</g>
		<g xmlns="http://www.w3.org/2000/svg">
		</g>
		<g xmlns="http://www.w3.org/2000/svg">
		</g>
		<g xmlns="http://www.w3.org/2000/svg">
		</g>
		<g xmlns="http://www.w3.org/2000/svg">
		</g>
		<g xmlns="http://www.w3.org/2000/svg">
		</g>
		<g xmlns="http://www.w3.org/2000/svg">
		</g>
		<g xmlns="http://www.w3.org/2000/svg">
		</g>
		<g xmlns="http://www.w3.org/2000/svg">
		</g>
		<g xmlns="http://www.w3.org/2000/svg">
		</g>
		<g xmlns="http://www.w3.org/2000/svg">
		</g>
		<g xmlns="http://www.w3.org/2000/svg">
		</g>
		<g xmlns="http://www.w3.org/2000/svg">
		</g>
		<g xmlns="http://www.w3.org/2000/svg">
		</g>
		<g xmlns="http://www.w3.org/2000/svg">
		</g>
		<g xmlns="http://www.w3.org/2000/svg">
		</g>
	</symbol>
</svg>
